<?xml version="1.0" standalone="no"?>
<!DOCTYPE svg PUBLIC "-//W3C//DTD SVG 20010904//EN"
 "http://www.w3.org/TR/2001/REC-SVG-20010904/DTD/svg10.dtd">
<svg version="1.0" xmlns="http://www.w3.org/2000/svg"
 width="500.000000pt" height="500.000000pt" viewBox="0 0 500.000000 500.000000"
 preserveAspectRatio="xMidYMid meet">
<metadata>
Created by potrace 1.16, written by Peter Selinger 2001-2019
</metadata>
<g transform="translate(0.000000,500.000000) scale(0.100000,-0.100000)"
fill="#000000" stroke="none">
<path d="M2890 3020 c-8 -5 -27 -6 -42 -3 -34 7 -78 -20 -78 -47 0 -24 8 -25
60 -4 23 9 43 14 45 12 3 -3 10 -30 15 -61 30 -159 -86 -595 -176 -666 -18
-14 -22 -21 -11 -21 18 0 61 49 86 99 24 47 66 180 93 295 26 109 31 307 10
344 -12 21 -11 25 5 37 21 15 15 28 -7 15z"/>
<path d="M2445 2909 c-101 -23 -121 -40 -127 -114 -2 -18 -11 -34 -23 -40
-119 -60 -238 -146 -223 -160 3 -3 21 9 40 27 51 48 201 131 209 115 3 -6 9
-82 13 -167 6 -145 30 -357 41 -368 13 -13 13 11 0 93 -18 107 -40 453 -30
463 7 7 189 81 192 78 1 -1 -11 -28 -27 -61 -45 -96 -64 -187 -64 -312 -1 -95
2 -115 17 -130 29 -29 48 -6 97 114 l45 111 -3 -102 c-2 -55 1 -119 7 -141 11
-42 43 -85 63 -85 7 0 4 6 -5 13 -62 46 -70 238 -16 394 22 64 25 103 8 86 -6
-6 -45 -96 -87 -199 -43 -104 -81 -188 -87 -187 -15 3 -23 40 -24 113 -2 177
69 384 142 409 32 12 33 9 11 -25 -9 -13 -14 -27 -11 -30 3 -3 17 15 32 40 38
65 26 76 -74 75 -42 -1 -94 -5 -116 -10z m139 -8 c10 -16 -28 -39 -135 -80
-58 -23 -108 -41 -112 -41 -4 0 -7 13 -7 28 0 56 60 81 237 101 6 0 14 -3 17
-8z"/>
</g>
</svg>
